<svg width="48" height="48" viewBox="0 0 48 48" fill="none" xmlns="http://www.w3.org/2000/svg">
    <path
        d="M4.00403 24.0039C4.00515 28.7665 5.70497 33.3726 8.79795 36.9942C11.8909 40.6158 16.1743 43.0155 20.878 43.7619V29.7839H15.804V24.0039H20.884V19.6039C20.7719 18.5741 20.8878 17.5322 21.2237 16.5522C21.5595 15.5723 22.107 14.6783 22.8273 13.9338C23.5476 13.1893 24.423 12.6125 25.3913 12.2444C26.3596 11.8763 27.3971 11.7259 28.43 11.8039C29.93 11.8279 31.43 11.9619 32.91 12.2039V17.1219H30.382C29.9524 17.0656 29.5156 17.1066 29.1039 17.2419C28.6922 17.3771 28.3162 17.6031 28.0036 17.9033C27.691 18.2034 27.4498 18.5699 27.2979 18.9757C27.146 19.3815 27.0873 19.8163 27.126 20.2479V24.0039H32.668L31.782 29.7859H27.126V43.7619C30.9013 43.1653 34.4265 41.4994 37.2843 38.9615C40.1422 36.4235 42.213 33.1198 43.2515 29.4416C44.2901 25.7633 44.2529 21.8644 43.1444 18.2066C42.0359 14.5488 39.9025 11.2852 36.9968 8.8022C34.091 6.31923 30.5347 4.72086 26.7488 4.19633C22.9628 3.67179 19.1059 4.24307 15.6345 5.84252C12.1632 7.44197 9.22286 10.0026 7.16164 13.2213C5.10042 16.4399 4.00464 20.1818 4.00403 24.0039Z"
        fill="white" />
</svg>