<svg width="48" height="48" viewBox="0 0 48 48" fill="none" xmlns="http://www.w3.org/2000/svg">
<path d="M24 17.7516C20.5594 17.7516 17.7516 20.5594 17.7516 24C17.7516 27.4407 20.5594 30.2485 24 30.2485C27.4406 30.2485 30.2484 27.4407 30.2484 24C30.2484 20.5594 27.4406 17.7516 24 17.7516ZM42.7406 24C42.7406 21.4125 42.7641 18.8485 42.6188 16.2657C42.4734 13.2657 41.7891 10.6032 39.5953 8.4094C37.3969 6.21096 34.7391 5.53128 31.7391 5.38596C29.1516 5.24065 26.5875 5.26409 24.0047 5.26409C21.4172 5.26409 18.8531 5.24065 16.2703 5.38596C13.2703 5.53128 10.6078 6.21565 8.41407 8.4094C6.21563 10.6078 5.53595 13.2657 5.39063 16.2657C5.24532 18.8532 5.26876 21.4172 5.26876 24C5.26876 26.5828 5.24532 29.1516 5.39063 31.7344C5.53595 34.7344 6.22032 37.3969 8.41407 39.5907C10.6125 41.7891 13.2703 42.4688 16.2703 42.6141C18.8578 42.7594 21.4219 42.736 24.0047 42.736C26.5922 42.736 29.1563 42.7594 31.7391 42.6141C34.7391 42.4688 37.4016 41.7844 39.5953 39.5907C41.7938 37.3922 42.4734 34.7344 42.6188 31.7344C42.7688 29.1516 42.7406 26.5875 42.7406 24ZM24 33.6141C18.6797 33.6141 14.3859 29.3203 14.3859 24C14.3859 18.6797 18.6797 14.386 24 14.386C29.3203 14.386 33.6141 18.6797 33.6141 24C33.6141 29.3203 29.3203 33.6141 24 33.6141ZM34.0078 16.2375C32.7656 16.2375 31.7625 15.2344 31.7625 13.9922C31.7625 12.75 32.7656 11.7469 34.0078 11.7469C35.25 11.7469 36.2531 12.75 36.2531 13.9922C36.2535 14.2872 36.1957 14.5793 36.083 14.8519C35.9703 15.1245 35.8049 15.3721 35.5963 15.5807C35.3878 15.7893 35.1401 15.9547 34.8675 16.0674C34.5949 16.1801 34.3028 16.2379 34.0078 16.2375Z" fill="white"/>
</svg>
